0
SECTION
2
HEADER
9
$INSUNITS
70
4
9
$ACADVER
1
AC1014
9
$HANDSEED
5
FFFF
0
ENDSEC
0
SECTION
2
TABLES
0
TABLE
2
VPORT
5
8
100
AcDbSymbolTable
0
ENDTAB
0
TABLE
2
LTYPE
5
5
100
AcDbSymbolTable
0
LTYPE
5
14
100
AcDbSymbolTableRecord
100
AcDbLinetypeTableRecord
2
BYBLOCK
70
0
0
LTYPE
5
15
100
AcDbSymbolTableRecord
100
AcDbLinetypeTableRecord
2
BYLAYER
70
0
0
LTYPE
5
16
100
AcDbSymbolTableRecord
100
AcDbLinetypeTableRecord
2
DASHED
70
0
3
Dashed __ __ __ __ __ __ __ __ __ __ __ __ __ _
72
65
73
2
40
0.75
49
0.5
74
0
49
-0.25
74
0
0
ENDTAB
0
TABLE
2
LAYER
5
2
100
AcDbSymbolTable
70
3
0
LAYER
5
50
100
AcDbSymbolTableRecord
100
AcDbLayerTableRecord
2
1
70
0
62
7
6
DASHED
0
LAYER
5
51
100
AcDbSymbolTableRecord
100
AcDbLayerTableRecord
2
0
70
0
62
7
6
CONTINUOUS
0
ENDTAB
0
TABLE
2
STYLE
5
3
100
AcDbSymbolTable
70
1
0
STYLE
5
11
100
AcDbSymbolTableRecord
100
AcDbTextStyleTableRecord
2
STANDARD
70
0
0
ENDTAB
0
TABLE
2
VIEW
5
6
100
AcDbSymbolTable
70
0
0
ENDTAB
0
TABLE
2
UCS
5
7
100
AcDbSymbolTable
70
0
0
ENDTAB
0
TABLE
2
APPID
5
9
100
AcDbSymbolTable
70
2
0
APPID
5
12
100
AcDbSymbolTableRecord
100
AcDbRegAppTableRecord
2
ACAD
70
0
0
ENDTAB
0
TABLE
2
DIMSTYLE
5
A
100
AcDbSymbolTable
70
1
0
ENDTAB
0
TABLE
2
BLOCK_RECORD
5
1
100
AcDbSymbolTable
70
1
0
BLOCK_RECORD
5
1F
100
AcDbSymbolTableRecord
100
AcDbBlockTableRecord
2
*MODEL_SPACE
0
BLOCK_RECORD
5
1B
100
AcDbSymbolTableRecord
100
AcDbBlockTableRecord
2
*PAPER_SPACE
0
ENDTAB
0
ENDSEC
0
SECTION
2
BLOCKS
0
BLOCK
5
20
100
AcDbEntity
100
AcDbBlockBegin
2
*MODEL_SPACE
0
ENDBLK
5
21
100
AcDbEntity
100
AcDbBlockEnd
0
BLOCK
5
1C
100
AcDbEntity
100
AcDbBlockBegin
2
*PAPER_SPACE
0
ENDBLK
5
1D
100
AcDbEntity
100
AcDbBlockEnd
0
ENDSEC
0
SECTION
2
ENTITIES
0
CIRCLE
5
100
100
AcDbEntity
8
0
100
AcDbCircle
10
35.649999999999984
20
-75.6177062598438
30
0
40
1.6500000000000004
210
0
220
-0
230
1
0
CIRCLE
5
101
100
AcDbEntity
8
0
100
AcDbCircle
10
-35.649999999999984
20
-75.6177062598438
30
0
40
1.6500000000000004
210
0
220
-0
230
1
0
CIRCLE
5
102
100
AcDbEntity
8
0
100
AcDbCircle
10
-53.76532136892456
20
-32.861663277169534
30
0
40
1.6500000000000004
210
0
220
-0
230
1
0
ARC
5
103
100
AcDbEntity
8
0
100
AcDbCircle
10
-2.3092638912203256e-13
20
2.886579864025407e-14
30
0
40
87.500000000000199
210
0
220
-0
230
1
100
AcDbArc
50
63.292116591143355
51
66.675943870054695
0
ARC
5
104
100
AcDbEntity
8
0
100
AcDbCircle
10
32.664314542755491
20
75.758118742824806
30
0
40
5.0000000000000622
210
0
220
-0
230
1
100
AcDbArc
50
66.6759438700537
51
68.783370478610124
0
ARC
5
105
100
AcDbEntity
8
0
100
AcDbCircle
10
33.749999999999986
20
78.554775155029816
30
0
40
2.0000000000001221
210
0
220
-0
230
1
100
AcDbArc
50
68.783370478610038
51
180
0
LINE
5
106
100
AcDbEntity
8
0
100
AcDbLine
10
31.749999999999979
20
78.554775155029816
30
0
11
31.749999999999787
21
29.398790888575927
31
0
0
ARC
5
107
100
AcDbEntity
8
0
100
AcDbCircle
10
28.749999999999787
20
29.398790888575938
30
0
40
2.9999999999999982
210
0
220
0
230
1
100
AcDbArc
50
270
51
360
0
LINE
5
108
100
AcDbEntity
8
0
100
AcDbLine
10
28.749999999999787
20
26.398790888575938
30
0
11
-28.75000000000048
21
26.398790888575938
31
0
0
ARC
5
109
100
AcDbEntity
8
0
100
AcDbCircle
10
-28.750000000000476
20
29.398790888575938
30
0
40
3.0000000000000027
210
0
220
0
230
1
100
AcDbArc
50
180
51
269.99999999999989
0
LINE
5
110
100
AcDbEntity
8
0
100
AcDbLine
10
-31.750000000000476
20
29.398790888575977
30
0
11
-31.749999999999986
21
78.554775155029816
31
0
0
ARC
5
111
100
AcDbEntity
8
0
100
AcDbCircle
10
-33.749999999999986
20
78.554775155029816
30
0
40
1.9999999999999973
210
-0
220
0
230
1
100
AcDbArc
50
0
51
111.21662952138968
0
ARC
5
112
100
AcDbEntity
8
0
100
AcDbCircle
10
-32.664314542755491
20
75.758118742824806
30
0
40
4.9999999999999281
210
0
220
0
230
1
100
AcDbArc
50
111.21662952138976
51
113.32405612994512
0
ARC
5
113
100
AcDbEntity
8
0
100
AcDbCircle
10
-2.3092638912203256e-13
20
2.886579864025407e-14
30
0
40
87.499999999999872
210
0
220
0
230
1
100
AcDbArc
50
113.32405612994496
51
116.7078834088566
0
ARC
5
114
100
AcDbEntity
8
0
100
AcDbCircle
10
-37.977841785297322
20
75.484657602262843
30
0
40
3.000000000000397
210
0
220
0
230
1
100
AcDbArc
50
116.70788340885748
51
134.99999999999898
0
LINE
5
115
100
AcDbEntity
8
0
100
AcDbLine
10
-40.099162128857202
20
77.605977945822801
30
0
11
-44.042672153330962
21
73.662467921349005
31
0
0
LINE
5
116
100
AcDbEntity
8
0
100
AcDbLine
10
-40.586306962586534
20
61.562483925989312
30
0
11
-61.072535974178905
21
41.076254914396856
31
0
0
ARC
5
117
100
AcDbEntity
8
0
100
AcDbCircle
10
-58.951215630619359
20
38.954934570837295
30
0
40
2.9999999999998717
210
0
220
0
230
1
100
AcDbArc
50
134.9999999999998
51
161.01038823130884
0
LINE
5
118
100
AcDbEntity
8
0
100
AcDbLine
10
-61.787948395946408
20
39.931124725530147
30
0
11
-62.436635803676275
21
38.046089504557983
31
0
0
ARC
5
119
100
AcDbEntity
8
0
100
AcDbCircle
10
-59.599903038349126
20
37.069899349865068
30
0
40
3.0000000000000018
210
0
220
0
230
1
100
AcDbArc
50
161.0103882313083
51
224.99999999999989
0
LINE
5
120
100
AcDbEntity
8
0
100
AcDbLine
10
-61.721223381908771
20
34.94857900630543
30
0
11
-56.699814510848732
21
29.927170135245351
31
0
0
ARC
5
121
100
AcDbEntity
8
0
100
AcDbCircle
10
-53.76532136892456
20
32.861663277169534
30
0
40
4.1500000000000101
210
0
220
0
230
1
100
AcDbArc
50
225.00000000000011
51
279.25560746078662
0
ARC
5
122
100
AcDbEntity
8
0
100
AcDbCircle
10
-52.615321368924548
20
25.804751771418594
30
0
40
2.9999999999999982
210
0
220
-0
230
1
100
AcDbArc
50
0
51
99.255607460786607
0
LINE
5
123
100
AcDbEntity
8
0
100
AcDbLine
10
-49.615321368924548
20
25.804751771418598
30
0
11
-49.615321368924548
21
-25.804751771418598
31
0
0
ARC
5
124
100
AcDbEntity
8
0
100
AcDbCircle
10
-52.615321368924548
20
-25.804751771418598
30
0
40
2.999999999999996
210
0
220
0
230
1
100
AcDbArc
50
-99.255607460786493
51
0
0
ARC
5
125
100
AcDbEntity
8
0
100
AcDbCircle
10
-53.76532136892456
20
-32.861663277169534
30
0
40
4.1500000000000012
210
0
220
-0
230
1
100
AcDbArc
50
80.74439253921328
51
134.99999999999986
0
LINE
5
126
100
AcDbEntity
8
0
100
AcDbLine
10
-56.699814510848725
20
-29.927170135245351
30
0
11
-61.721223381908779
21
-34.948579006305422
31
0
0
ARC
5
127
100
AcDbEntity
8
0
100
AcDbCircle
10
-59.599903038349133
20
-37.069899349865061
30
0
40
3.0000000000000004
210
0
220
0
230
1
100
AcDbArc
50
135.00000000000011
51
198.98961176869187
0
LINE
5
128
100
AcDbEntity
8
0
100
AcDbLine
10
-62.436635803676282
20
-38.046089504557983
30
0
11
-61.787948395946415
21
-39.931124725530147
31
0
0
ARC
5
129
100
AcDbEntity
8
0
100
AcDbCircle
10
-58.951215630619267
20
-38.954934570837224
30
0
40
3.0000000000000044
210
0
220
0
230
1
100
AcDbArc
50
198.98961176869187
51
224.99999999999977
0
LINE
5
130
100
AcDbEntity
8
0
100
AcDbLine
10
-61.072535974178912
20
-41.076254914396856
30
0
11
-40.586306962586534
21
-61.562483925989312
31
0
0
LINE
5
131
100
AcDbEntity
8
0
100
AcDbLine
10
-44.042672153330962
20
-73.662467921349005
30
0
11
-40.099162128857202
21
-77.605977945822801
31
0
0
ARC
5
132
100
AcDbEntity
8
0
100
AcDbCircle
10
-37.977841785297556
20
-75.484657602263155
30
0
40
3.0000000000000004
210
0
220
0
230
1
100
AcDbArc
50
225
51
243.2921165911431
0
ARC
5
133
100
AcDbEntity
8
0
100
AcDbCircle
10
-2.3092638912203256e-13
20
2.886579864025407e-14
30
0
40
87.499999999999915
210
0
220
0
230
1
100
AcDbArc
50
243.29211659114338
51
246.67594387005514
0
ARC
5
134
100
AcDbEntity
8
0
100
AcDbCircle
10
-32.664314542768707
20
-75.758118742857533
30
0
40
4.9999999999646523
210
0
220
0
230
1
100
AcDbArc
50
246.67594387004698
51
248.78337047861561
0
ARC
5
135
100
AcDbEntity
8
0
100
AcDbCircle
10
-33.749999999999986
20
-78.554775155029816
30
0
40
2
210
0
220
0
230
1
100
AcDbArc
50
-111.21662952138989
51
0
0
LINE
5
136
100
AcDbEntity
8
0
100
AcDbLine
10
-31.749999999999986
20
-78.554775155029816
30
0
11
-31.750000000000473
21
-29.398790888575981
31
0
0
ARC
5
137
100
AcDbEntity
8
0
100
AcDbCircle
10
-28.750000000000476
20
-29.398790888575942
30
0
40
3.0000000000000027
210
0
220
-0
230
1
100
AcDbArc
50
90
51
180
0
LINE
5
138
100
AcDbEntity
8
0
100
AcDbLine
10
-28.750000000000476
20
-26.398790888575938
30
0
11
28.74999999999979
21
-26.398790888575938
31
0
0
ARC
5
139
100
AcDbEntity
8
0
100
AcDbCircle
10
28.74999999999979
20
-29.398790888575931
30
0
40
2.9999999999999938
210
0
220
-0
230
1
100
AcDbArc
50
0
51
90
0
LINE
5
140
100
AcDbEntity
8
0
100
AcDbLine
10
31.749999999999787
20
-29.398790888575927
30
0
11
31.749999999999979
21
-78.554775155029816
31
0
0
ARC
5
141
100
AcDbEntity
8
0
100
AcDbCircle
10
33.749999999999986
20
-78.554775155029816
30
0
40
2.0000000000000062
210
0
220
0
230
1
100
AcDbArc
50
180
51
291.21662952138968
0
ARC
5
142
100
AcDbEntity
8
0
100
AcDbCircle
10
32.664314542751207
20
-75.758118742814787
30
0
40
5.0000000000108189
210
0
220
0
230
1
100
AcDbArc
50
291.216629521394
51
293.32405612994529
0
ARC
5
143
100
AcDbEntity
8
0
100
AcDbCircle
10
-2.3092638912203256e-13
20
2.886579864025407e-14
30
0
40
87.500000000000227
210
0
220
0
230
1
100
AcDbArc
50
293.32405612994529
51
296.7078834088565
0
LINE
5
144
100
AcDbEntity
8
0
100
AcDbLine
10
40.586306962586534
20
-61.562483925989312
30
0
11
61.562483925989511
21
-40.586306962586235
31
0
0
LINE
5
145
100
AcDbEntity
8
0
100
AcDbLine
10
65.177186547110622
20
-39.800031466211308
30
0
11
70.126934015416438
21
-44.749778934517117
31
0
0
LINE
5
146
100
AcDbEntity
8
0
100
AcDbLine
10
73.549508494039074
20
-44.15563158064068
30
0
11
77.43442845551067
21
-40.270711619169006
31
0
0
ARC
5
147
100
AcDbEntity
8
0
100
AcDbCircle
10
74.252447940170796
20
-37.088731103829296
30
0
40
4.5000000000004592
210
0
220
0
230
1
100
AcDbArc
50
315.00000000000148
51
333.45809814023704
0
ARC
5
148
100
AcDbEntity
8
0
100
AcDbCircle
10
-2.3092638912203256e-13
20
2.886579864025407e-14
30
0
40
87.500000000000284
210
-0
220
0
230
1
100
AcDbArc
50
-26.541901859762088
51
26.541901859762373
0
ARC
5
149
100
AcDbEntity
8
0
100
AcDbCircle
10
74.252447940170839
20
37.088731103829332
30
0
40
4.5000000000003793
210
0
220
-0
230
1
100
AcDbArc
50
26.541901859768817
51
44.999999999998593
0
LINE
5
150
100
AcDbEntity
8
0
100
AcDbLine
10
77.434428455510698
20
40.270711619169035
30
0
11
73.549508494039074
21
44.15563158064068
31
0
0
LINE
5
151
100
AcDbEntity
8
0
100
AcDbLine
10
70.126934015416424
20
44.749778934517117
30
0
11
65.177186547110622
21
39.800031466211315
31
0
0
LINE
5
152
100
AcDbEntity
8
0
100
AcDbLine
10
61.562483925989525
20
40.586306962586235
30
0
11
40.586306962586541
21
61.562483925989312
31
0
0
CIRCLE
5
153
100
AcDbEntity
8
0
100
AcDbCircle
10
-53.76532136892456
20
32.861663277169534
30
0
40
1.6500000000000004
210
0
220
-0
230
1
0
CIRCLE
5
154
100
AcDbEntity
8
0
100
AcDbCircle
10
-35.649999999999984
20
75.6177062598438
30
0
40
1.6500000000000004
210
0
220
-0
230
1
0
CIRCLE
5
155
100
AcDbEntity
8
0
100
AcDbCircle
10
35.649999999999984
20
75.6177062598438
30
0
40
1.6500000000000004
210
0
220
-0
230
1
0
CIRCLE
5
156
100
AcDbEntity
8
0
100
AcDbCircle
10
53.76532136892456
20
-32.861663277169534
30
0
40
1.6500000000000004
210
0
220
-0
230
1
0
CIRCLE
5
157
100
AcDbEntity
8
0
100
AcDbCircle
10
75.525499751614433
20
-28.43219013261055
30
0
40
1.6500000000000004
210
0
220
-0
230
1
0
CIRCLE
5
158
100
AcDbEntity
8
0
100
AcDbCircle
10
75.525499751614433
20
28.43219013261055
30
0
40
1.6500000000000004
210
0
220
-0
230
1
0
CIRCLE
5
159
100
AcDbEntity
8
0
100
AcDbCircle
10
53.76532136892456
20
32.861663277169534
30
0
40
1.6500000000000004
210
0
220
-0
230
1
0
CIRCLE
5
160
100
AcDbEntity
8
0
100
AcDbCircle
10
36.249999999999304
20
-32.000000000000057
30
0
40
1.5000000000000002
210
0
220
0
230
1
0
CIRCLE
5
161
100
AcDbEntity
8
0
100
AcDbCircle
10
-36.249999999999773
20
-32.000000000000007
30
0
40
1.5000000000000002
210
0
220
0
230
1
0
ARC
5
162
100
AcDbEntity
8
0
100
AcDbCircle
10
-41.921351809771309
20
71.541147577789374
30
0
40
3.0000000000000067
210
0
220
0
230
1
100
AcDbArc
50
135.00000000000031
51
225
0
LINE
5
163
100
AcDbEntity
8
0
100
AcDbLine
10
-44.042672153330955
20
69.419827234229729
30
0
11
-39.800031466211642
21
65.177186547110395
31
0
0
SPLINE
5
164
100
AcDbEntity
8
0
100
AcDbSpline
70
0
71
3
72
16
73
12
74
0
42
0.000000001
43
0.0000000001
44
0.0000000001
40
-0.672362115475308
40
-0.672362115475308
40
-0.672362115475308
40
-0.672362115475308
40
-0.56825679506588955
40
-0.56825679506588955
40
-0.46287942719966202
40
-0.46287942719966202
40
-0.24179631946090857
40
-0.24179631946090857
40
-0.13020315179378364
40
-0.13020315179378364
40
0
40
0
40
0
40
0
10
-39.800031466211635
20
65.177186547110409
30
0
10
-39.726486866504402
20
65.103641947403176
30
0
10
-39.660663395133852
20
65.016344592661241
30
0
10
-39.550349590530899
20
64.837426072896875
30
0
10
-39.501731614570843
20
64.738631749252789
30
0
10
-39.391736926179171
20
64.431471368535284
30
0
10
-39.369976491670698
20
64.207660487463997
30
0
10
-39.371361080430709
20
63.912289985465954
30
0
10
-39.379674731393514
20
63.521104948543808
30
0
10
-39.86378746454421
20
62.351758354310654
30
0
10
-40.27941519070238
20
61.869375697873465
30
0
10
-40.586306962586534
20
61.562483925989312
30
0
0
SPLINE
5
165
100
AcDbEntity
8
0
100
AcDbSpline
70
0
71
3
72
16
73
12
74
0
42
0.000000001
43
0.0000000001
44
0.0000000001
40
-0.672362115475308
40
-0.672362115475308
40
-0.672362115475308
40
-0.672362115475308
40
-0.56825679506588955
40
-0.56825679506588955
40
-0.46287942719966202
40
-0.46287942719966202
40
-0.24179631946090857
40
-0.24179631946090857
40
-0.13020315179378364
40
-0.13020315179378364
40
0
40
0
40
0
40
0
10
-39.800031466211635
20
-65.177186547110409
30
0
10
-39.726486866504402
20
-65.103641947403176
30
0
10
-39.660663395133852
20
-65.016344592661241
30
0
10
-39.550349590530899
20
-64.837426072896875
30
0
10
-39.501731614570843
20
-64.738631749252789
30
0
10
-39.391736926179171
20
-64.431471368535284
30
0
10
-39.369976491670698
20
-64.207660487463997
30
0
10
-39.371361080430709
20
-63.912289985465954
30
0
10
-39.379674731393514
20
-63.521104948543808
30
0
10
-39.86378746454421
20
-62.351758354310654
30
0
10
-40.27941519070238
20
-61.869375697873465
30
0
10
-40.586306962586534
20
-61.562483925989312
30
0
0
LINE
5
166
100
AcDbEntity
8
0
100
AcDbLine
10
-39.800031466211635
20
-65.177186547110409
30
0
11
-44.042672153330955
21
-69.419827234229729
31
0
0
ARC
5
167
100
AcDbEntity
8
0
100
AcDbCircle
10
-41.921351809771316
20
-71.541147577789374
30
0
40
3.0000000000000004
210
0
220
0
230
1
100
AcDbArc
50
134.99999999999991
51
224.99999999999977
0
LINE
5
168
100
AcDbEntity
8
0
100
AcDbLine
10
40.099162128856932
20
-77.605977945823071
30
0
11
44.042672153330962
21
-73.662467921349005
31
0
0
LINE
5
169
100
AcDbEntity
8
0
100
AcDbLine
10
44.042672153330962
20
-69.419827234229729
30
0
11
39.800031466211635
21
-65.177186547110409
31
0
0
SPLINE
5
170
100
AcDbEntity
8
0
100
AcDbSpline
70
0
71
3
72
16
73
12
74
0
42
0.000000001
43
0.0000000001
44
0.0000000001
40
-0.26575880624701598
40
-0.26575880624701598
40
-0.26575880624701598
40
-0.26575880624701598
40
-0.21194805400646355
40
-0.21194805400646355
40
-0.13607523896246274
40
-0.13607523896246274
40
-0.083059807232223198
40
-0.083059807232223198
40
-0.041406012284117936
40
-0.041406012284117936
40
0
40
0
40
0
40
0
10
40.586306962586534
20
-61.562483925989312
30
0
10
40.333321406009034
20
-61.815469482566812
30
0
10
40.084288820627805
20
-62.126109956622827
30
0
10
39.618194378734685
20
-62.861780554740044
30
0
10
39.514135214839079
20
-63.187899106881595
30
0
10
39.404588615516062
20
-63.611254944504559
30
0
10
39.347842147979378
20
-63.89385616029135
30
0
10
39.407421723166877
20
-64.507953369760415
30
0
10
39.476702967058664
20
-64.687438130421782
30
0
10
39.613788947638973
20
-64.952970627805641
30
0
10
39.702436559318322
20
-65.079591640217103
30
0
10
39.800031466211635
20
-65.177186547110409
30
0
0
SPLINE
5
171
100
AcDbEntity
8
0
100
AcDbSpline
70
0
71
3
72
16
73
12
74
0
42
0.000000001
43
0.0000000001
44
0.0000000001
40
-0.67236211547468339
40
-0.67236211547468339
40
-0.67236211547468339
40
-0.67236211547468339
40
-0.56825679506545523
40
-0.56825679506545523
40
-0.46287942719938069
40
-0.46287942719938069
40
-0.24179631946087454
40
-0.24179631946087454
40
-0.13020315179377706
40
-0.13020315179377706
40
0
40
0
40
0
40
0
10
65.177186547110622
20
-39.800031466211308
30
0
10
65.103641947403389
20
-39.726486866504075
30
0
10
65.016344592661412
20
-39.660663395133511
30
0
10
64.837426072897117
20
-39.550349590530601
30
0
10
64.738631749253045
20
-39.501731614570545
30
0
10
64.431471368535497
20
-39.391736926178837
30
0
10
64.207660487464167
20
-39.369976491670386
30
0
10
63.912289985466174
20
-39.37136108043039
30
0
10
63.521104948544036
20
-39.379674731393209
30
0
10
62.351758354310917
20
-39.863787464543833
30
0
10
61.869375697873664
20
-40.279415190702096
30
0
10
61.562483925989525
20
-40.586306962586235
30
0
0
SPLINE
5
172
100
AcDbEntity
8
0
100
AcDbSpline
70
0
71
3
72
16
73
12
74
0
42
0.000000001
43
0.0000000001
44
0.0000000001
40
-0.31282274229417706
40
-0.31282274229417706
40
-0.31282274229417706
40
-0.31282274229417706
40
-0.23867596174483141
40
-0.23867596174483141
40
-0.14664828707428301
40
-0.14664828707428301
40
-0.085976765185045351
40
-0.085976765185045351
40
-0.041361233992005565
40
-0.041361233992005565
40
0
40
0
40
0
40
0
10
73.549508494039074
20
-44.15563158064068
30
0
10
73.336457105732748
20
-44.36868296894702
30
0
10
73.060343080680866
20
-44.581160948380642
30
0
10
72.445028991895157
20
-44.946611994081643
30
0
10
72.157474770716036
20
-45.042942719202294
30
0
10
71.736062238592211
20
-45.149064594453627
30
0
10
71.437666221059843
20
-45.209643626805189
30
0
10
70.807784806337011
20
-45.1456067918445
30
0
10
70.625591936891567
20
-45.07792674651499
30
0
10
70.350592426275952
20
-44.935508785884323
30
0
10
70.224423378863051
20
-44.847268297963758
30
0
10
70.126934015416424
20
-44.749778934517117
30
0
0
SPLINE
5
173
100
AcDbEntity
8
0
100
AcDbSpline
70
0
71
3
72
16
73
12
74
0
42
0.000000001
43
0.0000000001
44
0.0000000001
40
-0.31282274229417706
40
-0.31282274229417706
40
-0.31282274229417706
40
-0.31282274229417706
40
-0.23867596174483141
40
-0.23867596174483141
40
-0.14664828707428301
40
-0.14664828707428301
40
-0.085976765185045351
40
-0.085976765185045351
40
-0.041361233992005565
40
-0.041361233992005565
40
0
40
0
40
0
40
0
10
73.549508494039074
20
44.15563158064068
30
0
10
73.336457105732748
20
44.36868296894702
30
0
10
73.060343080680866
20
44.581160948380642
30
0
10
72.445028991895157
20
44.946611994081643
30
0
10
72.157474770716036
20
45.042942719202294
30
0
10
71.736062238592211
20
45.149064594453627
30
0
10
71.437666221059843
20
45.209643626805189
30
0
10
70.807784806337011
20
45.1456067918445
30
0
10
70.625591936891567
20
45.07792674651499
30
0
10
70.350592426275952
20
44.935508785884323
30
0
10
70.224423378863051
20
44.847268297963758
30
0
10
70.126934015416424
20
44.749778934517117
30
0
0
SPLINE
5
174
100
AcDbEntity
8
0
100
AcDbSpline
70
0
71
3
72
16
73
12
74
0
42
0.000000001
43
0.0000000001
44
0.0000000001
40
-0.67236211547468339
40
-0.67236211547468339
40
-0.67236211547468339
40
-0.67236211547468339
40
-0.56825679506545523
40
-0.56825679506545523
40
-0.46287942719938069
40
-0.46287942719938069
40
-0.24179631946087454
40
-0.24179631946087454
40
-0.13020315179377706
40
-0.13020315179377706
40
0
40
0
40
0
40
0
10
65.177186547110622
20
39.800031466211308
30
0
10
65.103641947403389
20
39.726486866504075
30
0
10
65.016344592661412
20
39.660663395133511
30
0
10
64.837426072897117
20
39.550349590530601
30
0
10
64.738631749253045
20
39.501731614570545
30
0
10
64.431471368535497
20
39.391736926178837
30
0
10
64.207660487464167
20
39.369976491670386
30
0
10
63.912289985466174
20
39.37136108043039
30
0
10
63.521104948544036
20
39.379674731393209
30
0
10
62.351758354310917
20
39.863787464543833
30
0
10
61.869375697873664
20
40.279415190702096
30
0
10
61.562483925989525
20
40.586306962586235
30
0
0
SPLINE
5
175
100
AcDbEntity
8
0
100
AcDbSpline
70
0
71
3
72
16
73
12
74
0
42
0.000000001
43
0.0000000001
44
0.0000000001
40
-0.26575880624701598
40
-0.26575880624701598
40
-0.26575880624701598
40
-0.26575880624701598
40
-0.21194805400646355
40
-0.21194805400646355
40
-0.13607523896246274
40
-0.13607523896246274
40
-0.083059807232223198
40
-0.083059807232223198
40
-0.041406012284117936
40
-0.041406012284117936
40
0
40
0
40
0
40
0
10
40.586306962586534
20
61.562483925989312
30
0
10
40.333321406009034
20
61.815469482566812
30
0
10
40.084288820627805
20
62.126109956622827
30
0
10
39.618194378734685
20
62.861780554740044
30
0
10
39.514135214839079
20
63.187899106881595
30
0
10
39.404588615516062
20
63.611254944504559
30
0
10
39.347842147979378
20
63.89385616029135
30
0
10
39.407421723166877
20
64.507953369760415
30
0
10
39.476702967058664
20
64.687438130421782
30
0
10
39.613788947638973
20
64.952970627805641
30
0
10
39.702436559318322
20
65.079591640217103
30
0
10
39.800031466211635
20
65.177186547110409
30
0
0
LINE
5
176
100
AcDbEntity
8
0
100
AcDbLine
10
39.800031466211635
20
65.177186547110409
30
0
11
44.042672153330962
21
69.419827234229729
31
0
0
LINE
5
177
100
AcDbEntity
8
0
100
AcDbLine
10
44.042672153330962
20
73.662467921349005
30
0
11
40.099162128856932
21
77.605977945823071
31
0
0
CIRCLE
5
178
100
AcDbEntity
8
0
100
AcDbCircle
10
-36.249999999999773
20
32.000000000000007
30
0
40
1.5000000000000002
210
0
220
-0
230
1
0
CIRCLE
5
179
100
AcDbEntity
8
0
100
AcDbCircle
10
36.249999999999304
20
32.000000000000057
30
0
40
1.5000000000000002
210
0
220
-0
230
1
0
ARC
5
180
100
AcDbEntity
8
0
100
AcDbCircle
10
41.921351809771309
20
71.541147577789374
30
0
40
3.0000000000000124
210
0
220
0
230
1
100
AcDbArc
50
-44.999999999999901
51
44.999999999999709
0
ARC
5
181
100
AcDbEntity
8
0
100
AcDbCircle
10
41.921351809771316
20
-71.541147577789374
30
0
40
3.0000000000000004
210
-0
220
0
230
1
100
AcDbArc
50
-44.999999999999794
51
45
0
ARC
5
182
100
AcDbEntity
8
0
100
AcDbCircle
10
37.977841785296995
20
75.484657602263056
30
0
40
3.0000000000004712
210
0
220
-0
230
1
100
AcDbArc
50
45.000000000001059
51
63.292116591141429
0
ARC
5
183
100
AcDbEntity
8
0
100
AcDbCircle
10
37.977841785297279
20
-75.484657602263425
30
0
40
2.9999999999999831
210
-0
220
0
230
1
100
AcDbArc
50
296.70788340885349
51
315.00000000000011
0
ENDSEC
0
SECTION
2
OBJECTS
0
DICTIONARY
5
C
100
AcDbDictionary
3
ACAD_GROUP
350
D
3
ACAD_MLINESTYLE
350
17
0
DICTIONARY
5
D
100
AcDbDictionary
0
DICTIONARY
5
1A
330
C
100
AcDbDictionary
0
DICTIONARY
5
17
100
AcDbDictionary
0
ENDSEC
0
EOF
